<svg xmlns="http://www.w3.org/2000/svg" xmlns:xlink="http://www.w3.org/1999/xlink" viewBox="0 0 32 32">
  <defs>
    <style>
      .cls-1 {
        fill: url(#linear-gradient);
      }

      .cls-2 {
        fill: #fff;
      }
    </style>
    <linearGradient id="linear-gradient" x1="4.58" y1="4.58" x2="27.42" y2="27.42" gradientUnits="userSpaceOnUse">
      <stop offset="0" stop-color="#f25437"/>
      <stop offset="1" stop-color="#cd4e39"/>
    </linearGradient>
  </defs>
  <title>color-resources-app</title>
  <g id="New">
    <path class="cls-1" d="M30.275,16c0,11.42-2.855,14.275-14.275,14.275S1.725,27.42,1.725,16,4.58,1.725,16,1.725,30.275,4.58,30.275,16Z"/>
    <path class="cls-2" d="M14.9,21.74a.86.86,0,0,1-.86.86H10.26a.86.86,0,0,1-.86-.86V17.96a.86.86,0,0,1,.86-.86h3.78a.86.86,0,0,1,.86.86Zm0-7.7a.86.86,0,0,1-.86.86H10.26a.86.86,0,0,1-.86-.86V10.26a.86.86,0,0,1,.86-.86h3.78a.86.86,0,0,1,.86.86Zm7.7,7.7a.86.86,0,0,1-.86.86H17.96a.86.86,0,0,1-.86-.86V17.96a.86.86,0,0,1,.86-.86h3.78a.86.86,0,0,1,.86.86Zm0-7.7a.86.86,0,0,1-.86.86H17.96a.86.86,0,0,1-.86-.86V10.26a.86.86,0,0,1,.86-.86h3.78a.86.86,0,0,1,.86.86Z"/>
  </g>
</svg>
